<?xml version="1.0" encoding="UTF-8" standalone="no"?>
<svg
   viewBox="0 0 16 16"
   version="1.1"
   id="svg7"
   sodipodi:docname="audio-volume-muted.svg"
   width="16"
   height="16"
   inkscape:version="1.4.2 (unknown)"
   xmlns:inkscape="http://www.inkscape.org/namespaces/inkscape"
   xmlns:sodipodi="http://sodipodi.sourceforge.net/DTD/sodipodi-0.dtd"
   xmlns="http://www.w3.org/2000/svg"
   xmlns:svg="http://www.w3.org/2000/svg">
  <defs
     id="defs7" />
  <sodipodi:namedview
     id="namedview7"
     pagecolor="#ffffff"
     bordercolor="#999999"
     borderopacity="1"
     inkscape:showpageshadow="2"
     inkscape:pageopacity="0"
     inkscape:pagecheckerboard="0"
     inkscape:deskcolor="#d1d1d1"
     inkscape:zoom="11.90625"
     inkscape:cx="7.7270341"
     inkscape:cy="21.375328"
     inkscape:window-width="1920"
     inkscape:window-height="1010"
     inkscape:window-x="0"
     inkscape:window-y="0"
     inkscape:window-maximized="1"
     inkscape:current-layer="svg7" />
  <style
     id="current-color-scheme"
     type="text/css">.ColorScheme-Text { color:#232629; }
</style>
  <g
     id="g1"
     transform="translate(0,-23.1)">
    <path
       d="m 2.5209048,24.450474 c -0.1973342,-0.200626 -0.5173004,-0.200635 -0.7146415,-1.2e-5 -0.1973506,0.200616 -0.1973526,0.525889 -1.24e-5,0.726522 l 2.9107028,2.928583 H 3.1742399 c -0.7780573,0 -1.5266954,0.68625 -1.5266954,1.434887 v 2.994544 c 0,0.74864 0.7486381,1.510009 1.5267014,1.510009 h 2.2164813 v 0 l 2.9945442,2.585041 c 0.7486285,0.685003 1.5451835,0.380898 1.5451835,-0.3075 v -2.818521 l 4.3404101,4.345542 c 0.197355,0.200642 0.517315,0.200642 0.714678,0 0.197335,-0.200623 0.197335,-0.525918 0,-0.726543 z m 3.385832,6.699532 3.2271631,4.947265 -3.2271631,-4.947265 v 0 L 5.3907272,28.866683 v 0 0 0 0 z"
       id="path1707-3-6-9"
       style="fill:currentColor;fill-opacity:1;stroke-width:0.67934"
       sodipodi:nodetypes="ccccsssscccscccccccccccccscc"
       class="ColorScheme-Text" />
    <path
       d="m 9.1979123,26.098313 v 3.794591 l 0.8139957,1.032159 v -5.086076 c 0,-0.908089 -0.8139957,-0.908089 -1.2515887,-0.384809 L 6.802,27.152651 7.37103,27.720959 Z"
       id="path1709-5-7-7"
       style="fill:currentColor;fill-opacity:1;stroke-width:0.688503"
       sodipodi:nodetypes="cccscccc"
       class="ColorScheme-Text" />
    <path
       d="m 11.740926,32.807672 0.991832,0.985395 c 0.402472,-0.809114 0.628377,-1.72004 0.628377,-2.68169 0,-1.041747 -0.265128,-2.023907 -0.732441,-2.881586 -0.171874,-0.315392 -0.568599,-0.432651 -0.886023,-0.261918 -0.317481,0.170738 -0.435601,0.564808 -0.263742,0.880189 0.366491,0.672549 0.57488,1.442779 0.57488,2.263315 0,0.598277 -0.110727,1.169888 -0.312883,1.696295 z"
       id="path1711-6-5-3"
       style="fill:currentColor;fill-opacity:0.501961;stroke-width:0.868671"
       class="ColorScheme-Text" />
    <path
       d="M 13.610228,34.753317 14.563175,35.7 c 0.838593,-1.330488 1.323441,-2.90401 1.323441,-4.588623 0,-1.927411 -0.634737,-3.709417 -1.70763,-5.148474 -0.214931,-0.288182 -0.624286,-0.348773 -0.914334,-0.135319 -0.290148,0.213453 -0.351049,0.620113 -0.136239,0.908306 0.911817,1.223002 1.450886,2.735809 1.450886,4.375487 0,1.325642 -0.35229,2.568256 -0.969071,3.64194 z"
       id="path1713-2-3-6"
       style="fill:currentColor;fill-opacity:0.501961;stroke-width:0.868671"
       class="ColorScheme-Text" />
    <path
       d="m 2.7950898,30.985256 c 0,0.634083 -0.5134733,1.147549 -1.1475458,1.147549 C 1.0140029,32.132806 0.5,31.61934 0.5,30.985256 c 0,-0.63354 0.5140029,-1.147537 1.147544,-1.147537 0.6340725,0 1.1475458,0.513997 1.1475458,1.147537 z"
       id="path72-3-7-3-9-3-5-1"
       style="fill:currentColor;fill-opacity:1;stroke-width:0.0136602"
       class="ColorScheme-Text" />
  </g>
</svg>
